<svg xmlns="http://www.w3.org/2000/svg" xmlns:xlink="http://www.w3.org/1999/xlink" width="100" zoomAndPan="magnify" viewBox="0 0 75 74.999997" height="100" preserveAspectRatio="xMidYMid meet" version="1.0"><defs><clipPath id="bb40dbaa12"><path d="M 22.5 26.808594 L 52.5 26.808594 L 52.5 48.558594 L 22.5 48.558594 Z M 22.5 26.808594 " clip-rule="nonzero"/></clipPath></defs><g clip-path="url(#bb40dbaa12)"><path fill="#ffffff" d="M 41.199219 38.742188 L 51.78125 47.976562 C 51.398438 48.339844 50.878906 48.566406 50.308594 48.566406 L 24.679688 48.566406 C 24.109375 48.566406 23.589844 48.339844 23.203125 47.976562 L 33.789062 38.742188 L 37.496094 42.039062 Z M 51.785156 27.398438 C 51.402344 27.035156 50.882812 26.808594 50.3125 26.808594 L 24.679688 26.808594 C 24.109375 26.808594 23.59375 27.035156 23.207031 27.40625 L 37.496094 39.863281 Z M 22.527344 28.71875 L 22.527344 46.792969 L 32.863281 37.859375 Z M 42.128906 37.859375 L 52.464844 46.792969 L 52.464844 28.710938 Z M 42.128906 37.859375 " fill-opacity="1" fill-rule="nonzero"/></g><path fill="#1e72bb" d="M 18.898438 0 L 56.101562 0 C 56.71875 0 57.335938 0.03125 57.953125 0.0898438 C 58.570312 0.152344 59.179688 0.242188 59.789062 0.363281 C 60.394531 0.484375 60.996094 0.632812 61.585938 0.8125 C 62.179688 0.992188 62.761719 1.203125 63.332031 1.4375 C 63.90625 1.675781 64.464844 1.941406 65.011719 2.230469 C 65.554688 2.523438 66.085938 2.839844 66.601562 3.183594 C 67.117188 3.527344 67.613281 3.898438 68.089844 4.289062 C 68.570312 4.683594 69.027344 5.097656 69.464844 5.535156 C 69.902344 5.972656 70.316406 6.429688 70.710938 6.910156 C 71.101562 7.386719 71.472656 7.882812 71.816406 8.398438 C 72.160156 8.914062 72.476562 9.445312 72.769531 9.988281 C 73.058594 10.535156 73.324219 11.09375 73.5625 11.667969 C 73.796875 12.238281 74.007812 12.820312 74.1875 13.414062 C 74.367188 14.003906 74.515625 14.605469 74.636719 15.210938 C 74.757812 15.820312 74.847656 16.429688 74.910156 17.046875 C 74.96875 17.664062 75 18.28125 75 18.898438 L 75 56.101562 C 75 56.71875 74.96875 57.335938 74.910156 57.953125 C 74.847656 58.570312 74.757812 59.179688 74.636719 59.789062 C 74.515625 60.394531 74.367188 60.996094 74.1875 61.585938 C 74.007812 62.179688 73.796875 62.761719 73.5625 63.332031 C 73.324219 63.90625 73.058594 64.464844 72.769531 65.011719 C 72.476562 65.554688 72.160156 66.085938 71.816406 66.601562 C 71.472656 67.117188 71.101562 67.613281 70.710938 68.089844 C 70.316406 68.570312 69.902344 69.027344 69.464844 69.464844 C 69.027344 69.902344 68.570312 70.316406 68.089844 70.710938 C 67.613281 71.101562 67.117188 71.472656 66.601562 71.816406 C 66.085938 72.160156 65.554688 72.476562 65.011719 72.769531 C 64.464844 73.058594 63.90625 73.324219 63.332031 73.5625 C 62.761719 73.796875 62.179688 74.007812 61.585938 74.1875 C 60.996094 74.367188 60.394531 74.515625 59.789062 74.636719 C 59.179688 74.757812 58.570312 74.847656 57.953125 74.910156 C 57.335938 74.96875 56.71875 75 56.101562 75 L 18.898438 75 C 18.28125 75 17.664062 74.96875 17.046875 74.910156 C 16.429688 74.847656 15.820312 74.757812 15.210938 74.636719 C 14.605469 74.515625 14.003906 74.367188 13.414062 74.1875 C 12.820312 74.007812 12.238281 73.796875 11.667969 73.5625 C 11.09375 73.324219 10.535156 73.058594 9.988281 72.769531 C 9.445312 72.476562 8.914062 72.160156 8.398438 71.816406 C 7.882812 71.472656 7.386719 71.101562 6.910156 70.710938 C 6.429688 70.316406 5.972656 69.902344 5.535156 69.464844 C 5.097656 69.027344 4.683594 68.570312 4.289062 68.089844 C 3.898438 67.613281 3.527344 67.117188 3.183594 66.601562 C 2.839844 66.085938 2.523438 65.554688 2.230469 65.011719 C 1.941406 64.464844 1.675781 63.90625 1.4375 63.332031 C 1.203125 62.761719 0.992188 62.179688 0.8125 61.585938 C 0.632812 60.996094 0.484375 60.394531 0.363281 59.789062 C 0.242188 59.179688 0.152344 58.570312 0.0898438 57.953125 C 0.03125 57.335938 0 56.71875 0 56.101562 L 0 18.898438 C 0 18.28125 0.03125 17.664062 0.0898438 17.046875 C 0.152344 16.429688 0.242188 15.820312 0.363281 15.210938 C 0.484375 14.605469 0.632812 14.003906 0.8125 13.414062 C 0.992188 12.820312 1.203125 12.238281 1.4375 11.667969 C 1.675781 11.09375 1.941406 10.535156 2.230469 9.988281 C 2.523438 9.445312 2.839844 8.914062 3.183594 8.398438 C 3.527344 7.882812 3.898438 7.386719 4.289062 6.910156 C 4.683594 6.429688 5.097656 5.972656 5.535156 5.535156 C 5.972656 5.097656 6.429688 4.683594 6.910156 4.289062 C 7.386719 3.898438 7.882812 3.527344 8.398438 3.183594 C 8.914062 2.839844 9.445312 2.523438 9.988281 2.230469 C 10.535156 1.941406 11.09375 1.675781 11.667969 1.4375 C 12.238281 1.203125 12.820312 0.992188 13.414062 0.8125 C 14.003906 0.632812 14.605469 0.484375 15.210938 0.363281 C 15.820312 0.242188 16.429688 0.152344 17.046875 0.0898438 C 17.664062 0.03125 18.28125 0 18.898438 0 Z M 18.898438 0 " fill-opacity="1" fill-rule="evenodd"/><path fill="#ffffff" d="M 18.898438 3.171875 C 10.253906 3.171875 3.171875 10.253906 3.171875 18.898438 L 3.171875 24.488281 C 13.550781 27.667969 25.191406 29.445312 37.496094 29.445312 C 49.800781 29.445312 61.441406 27.667969 71.820312 24.488281 L 71.820312 18.898438 C 71.820312 10.253906 64.738281 3.171875 56.101562 3.171875 Z M 18.898438 3.171875 " fill-opacity="0.122" fill-rule="evenodd"/><path fill="#ffffff" d="M 15.710938 19.519531 L 59.28125 19.519531 C 59.96875 19.519531 60.605469 19.703125 61.148438 20.027344 L 37.496094 43.679688 C 29.601562 35.796875 21.753906 27.9375 13.84375 20.027344 C 14.386719 19.703125 15.023438 19.519531 15.710938 19.519531 Z M 62.921875 23.183594 L 62.921875 51.28125 L 48.878906 37.238281 Z M 61.457031 54.753906 C 60.855469 55.207031 60.101562 55.472656 59.28125 55.472656 L 15.710938 55.472656 C 14.890625 55.472656 14.136719 55.207031 13.535156 54.753906 L 28.582031 39.695312 L 36.265625 47.378906 C 36.945312 48.058594 38.046875 48.058594 38.726562 47.378906 L 46.410156 39.695312 Z M 12.070312 51.28125 L 12.070312 23.183594 L 26.113281 37.238281 Z M 12.070312 51.28125 " fill-opacity="1" fill-rule="evenodd"/></svg>