<svg xmlns="http://www.w3.org/2000/svg" xmlns:xlink="http://www.w3.org/1999/xlink" width="100" zoomAndPan="magnify" viewBox="0 0 75 74.999997" height="100" preserveAspectRatio="xMidYMid meet" version="1.0"><path fill="#1877f2" d="M 75 37.5 C 75 16.789062 58.210938 0 37.5 0 C 16.789062 0 0 16.789062 0 37.5 C 0 56.21875 13.710938 71.730469 31.640625 74.542969 L 31.640625 48.339844 L 22.117188 48.339844 L 22.117188 37.5 L 31.640625 37.5 L 31.640625 29.238281 C 31.640625 19.839844 37.238281 14.648438 45.804688 14.648438 C 49.90625 14.648438 54.199219 15.382812 54.199219 15.382812 L 54.199219 24.609375 L 49.46875 24.609375 C 44.8125 24.609375 43.359375 27.5 43.359375 30.464844 L 43.359375 37.5 L 53.757812 37.5 L 52.097656 48.339844 L 43.359375 48.339844 L 43.359375 74.542969 C 61.285156 71.730469 75 56.21875 75 37.5 " fill-opacity="1" fill-rule="nonzero"/><path fill="#ffffff" d="M 52.097656 48.339844 L 53.757812 37.5 L 43.359375 37.5 L 43.359375 30.464844 C 43.359375 27.5 44.8125 24.609375 49.46875 24.609375 L 54.199219 24.609375 L 54.199219 15.382812 C 54.199219 15.382812 49.90625 14.648438 45.804688 14.648438 C 37.238281 14.648438 31.640625 19.839844 31.640625 29.238281 L 31.640625 37.5 L 22.117188 37.5 L 22.117188 48.339844 L 31.640625 48.339844 L 31.640625 74.542969 C 33.550781 74.84375 35.503906 75 37.5 75 C 39.492188 75 41.449219 74.84375 43.359375 74.542969 L 43.359375 48.339844 L 52.097656 48.339844 " fill-opacity="1" fill-rule="nonzero"/></svg>