<svg xmlns="http://www.w3.org/2000/svg" xmlns:xlink="http://www.w3.org/1999/xlink" width="200" zoomAndPan="magnify" viewBox="0 0 150 112.499997" height="150" preserveAspectRatio="xMidYMid meet" version="1.0"><defs><g/><clipPath id="ea4037a2ff"><path d="M 2 23.515625 L 46.625 23.515625 L 46.625 88.476562 L 2 88.476562 Z M 2 23.515625 " clip-rule="nonzero"/></clipPath><clipPath id="a4e84dd9c5"><path d="M 94.40625 66.550781 L 98.957031 66.550781 L 98.957031 71.101562 L 94.40625 71.101562 Z M 94.40625 66.550781 " clip-rule="nonzero"/></clipPath><clipPath id="c62ba7f150"><path d="M 96.679688 66.550781 C 95.425781 66.550781 94.40625 67.570312 94.40625 68.828125 C 94.40625 70.082031 95.425781 71.101562 96.679688 71.101562 C 97.9375 71.101562 98.957031 70.082031 98.957031 68.828125 C 98.957031 67.570312 97.9375 66.550781 96.679688 66.550781 Z M 96.679688 66.550781 " clip-rule="nonzero"/></clipPath></defs><g clip-path="url(#ea4037a2ff)"><path fill="#f6d44c" d="M 8.1875 65.757812 L 5.960938 62.929688 C 0.335938 55.773438 2.734375 45.253906 10.902344 41.242188 L 46.929688 23.542969 L 46.929688 30.828125 C 46.929688 36.402344 43.75 41.484375 38.738281 43.925781 L 14.789062 55.597656 C 13.042969 56.449219 11.515625 57.691406 10.363281 59.253906 C 9.207031 60.820312 8.210938 62.96875 8.289062 65.675781 C 9.078125 65.050781 9.953125 64.496094 10.902344 64.03125 L 46.929688 46.332031 L 46.929688 53.617188 C 46.929688 59.1875 43.746094 64.273438 38.738281 66.714844 L 14.789062 78.386719 C 13.042969 79.234375 11.515625 80.480469 10.363281 82.039062 C 9.175781 83.652344 8.15625 85.871094 8.296875 88.691406 L 5.960938 85.71875 C 1.019531 79.429688 2.269531 70.542969 8.1875 65.757812 Z M 31.585938 80.707031 L 46.917969 88.695312 L 46.914062 68.742188 L 31.617188 76.441406 C 29.871094 77.320312 29.855469 79.804688 31.585938 80.707031 Z M 31.585938 80.707031 " fill-opacity="1" fill-rule="nonzero"/></g><g fill="#f6d44c" fill-opacity="1"><g transform="translate(46.929788, 77.824004)"><g><path d="M 2.390625 -23.90625 L 11.21875 -23.90625 C 13.601562 -23.90625 15.398438 -23.660156 16.609375 -23.171875 C 17.828125 -22.679688 18.878906 -21.898438 19.765625 -20.828125 C 20.660156 -19.765625 21.328125 -18.503906 21.765625 -17.046875 C 22.210938 -15.597656 22.4375 -13.828125 22.4375 -11.734375 C 22.4375 -10.054688 22.257812 -8.570312 21.90625 -7.28125 C 21.550781 -5.988281 21.039062 -4.847656 20.375 -3.859375 C 19.71875 -2.867188 18.945312 -2.097656 18.0625 -1.546875 C 17.1875 -1.003906 16.253906 -0.609375 15.265625 -0.359375 C 14.273438 -0.117188 13.019531 0 11.5 0 L 2.390625 0 Z M 7.25 -19.890625 L 7.25 -4.046875 L 10.859375 -4.046875 C 12.191406 -4.046875 13.160156 -4.109375 13.765625 -4.234375 C 14.535156 -4.441406 15.179688 -4.78125 15.703125 -5.25 C 16.234375 -5.71875 16.660156 -6.484375 16.984375 -7.546875 C 17.304688 -8.617188 17.46875 -10.078125 17.46875 -11.921875 C 17.46875 -13.492188 17.347656 -14.753906 17.109375 -15.703125 C 16.878906 -16.660156 16.503906 -17.457031 15.984375 -18.09375 C 15.472656 -18.726562 14.800781 -19.1875 13.96875 -19.46875 C 13.132812 -19.75 11.617188 -19.890625 9.421875 -19.890625 Z M 7.25 -19.890625 "/></g></g></g><g fill="#f6d44c" fill-opacity="1"><g transform="translate(69.355823, 77.824004)"><g><path d="M 2.390625 -19.671875 L 2.390625 -23.90625 L 6.984375 -23.90625 L 6.984375 -19.671875 Z M 2.390625 0 L 2.390625 -17.34375 L 6.984375 -17.34375 L 6.984375 0 Z M 2.390625 0 "/></g></g></g><g fill="#f6d44c" fill-opacity="1"><g transform="translate(76.934821, 77.824004)"><g><path d="M 1.96875 1.140625 L 7.203125 1.78125 C 7.316406 2.476562 7.585938 2.9375 8.015625 3.15625 C 8.441406 3.382812 9.054688 3.5 9.859375 3.5 C 10.796875 3.5 11.550781 3.390625 12.125 3.171875 C 12.695312 2.960938 13.101562 2.613281 13.34375 2.125 C 13.582031 1.632812 13.703125 0.835938 13.703125 -0.265625 L 13.703125 -2.8125 C 12.316406 -0.9375 10.578125 0 8.484375 0 C 6.367188 0 4.65625 -0.8125 3.34375 -2.4375 C 2.03125 -4.0625 1.375 -6.171875 1.375 -8.765625 C 1.375 -11.671875 2.070312 -13.882812 3.46875 -15.40625 C 4.875 -16.9375 6.609375 -17.703125 8.671875 -17.703125 C 10.816406 -17.703125 12.582031 -16.765625 13.96875 -14.890625 L 13.96875 -17.34375 L 18.265625 -17.34375 L 18.265625 -1.78125 C 18.265625 0.65625 17.992188 2.453125 17.453125 3.609375 C 16.910156 4.773438 16.03125 5.632812 14.8125 6.1875 C 13.601562 6.738281 12.015625 7.015625 10.046875 7.015625 C 7.109375 7.015625 5.023438 6.515625 3.796875 5.515625 C 2.578125 4.515625 1.96875 3.242188 1.96875 1.703125 Z M 6.078125 -9.015625 C 6.078125 -7.171875 6.429688 -5.820312 7.140625 -4.96875 C 7.859375 -4.125 8.726562 -3.703125 9.75 -3.703125 C 10.882812 -3.703125 11.835938 -4.132812 12.609375 -5 C 13.378906 -5.875 13.765625 -7.179688 13.765625 -8.921875 C 13.765625 -10.703125 13.394531 -12.023438 12.65625 -12.890625 C 11.925781 -13.753906 10.992188 -14.1875 9.859375 -14.1875 C 8.765625 -14.1875 7.859375 -13.765625 7.140625 -12.921875 C 6.429688 -12.078125 6.078125 -10.773438 6.078125 -9.015625 Z M 6.078125 -9.015625 "/></g></g></g><g fill="#f6d44c" fill-opacity="1"><g transform="translate(95.640937, 77.824004)"><g><path d="M 2.390625 -19.671875 L 2.390625 -23.90625 L 6.984375 -23.90625 L 6.984375 -19.671875 Z M 2.390625 0 L 2.390625 -17.34375 L 6.984375 -17.34375 L 6.984375 0 Z M 2.390625 0 "/></g></g></g><g fill="#f6d44c" fill-opacity="1"><g transform="translate(103.219936, 77.824004)"><g><path d="M 10.359375 -17.34375 L 10.359375 -13.671875 L 7.203125 -13.671875 L 7.203125 -6.6875 C 7.203125 -5.28125 7.234375 -4.457031 7.296875 -4.21875 C 7.359375 -3.988281 7.492188 -3.796875 7.703125 -3.640625 C 7.921875 -3.484375 8.179688 -3.40625 8.484375 -3.40625 C 8.910156 -3.40625 9.523438 -3.550781 10.328125 -3.84375 L 10.71875 -0.296875 C 9.65625 0.171875 8.441406 0.40625 7.078125 0.40625 C 6.109375 0.40625 5.253906 0.210938 4.515625 -0.171875 C 3.773438 -0.566406 3.269531 -1.144531 3 -1.90625 C 2.738281 -2.664062 2.609375 -4.066406 2.609375 -6.109375 L 2.609375 -13.671875 L 0.5 -13.671875 L 0.5 -17.34375 L 2.609375 -17.34375 L 2.609375 -20.78125 L 7.203125 -23.453125 L 7.203125 -17.34375 Z M 10.359375 -17.34375 "/></g></g></g><g fill="#f6d44c" fill-opacity="1"><g transform="translate(112.642579, 77.824004)"><g><path d="M 5.8125 -12.015625 L 1.65625 -12.78125 C 2.125 -14.457031 2.925781 -15.695312 4.0625 -16.5 C 5.207031 -17.300781 6.90625 -17.703125 9.15625 -17.703125 C 11.207031 -17.703125 12.734375 -17.460938 13.734375 -16.984375 C 14.734375 -16.503906 15.4375 -15.890625 15.84375 -15.140625 C 16.257812 -14.398438 16.46875 -13.039062 16.46875 -11.0625 L 16.40625 -5.671875 C 16.40625 -4.160156 16.472656 -3.039062 16.609375 -2.3125 C 16.753906 -1.59375 17.03125 -0.820312 17.4375 0 L 12.9375 0 C 12.8125 -0.257812 12.6875 -0.625 12.5625 -1.09375 C 12.4375 -1.5625 12.359375 -1.832031 12.328125 -1.90625 C 10.742188 -0.363281 8.953125 0.40625 6.953125 0.40625 C 5.171875 0.40625 3.765625 -0.078125 2.734375 -1.046875 C 1.710938 -2.023438 1.203125 -3.257812 1.203125 -4.75 C 1.203125 -5.726562 1.4375 -6.59375 1.90625 -7.34375 C 2.375 -8.101562 3.023438 -8.6875 3.859375 -9.09375 C 4.691406 -9.507812 5.910156 -9.875 7.515625 -10.1875 C 9.648438 -10.59375 11.128906 -10.957031 11.953125 -11.28125 L 11.953125 -11.765625 C 11.953125 -12.648438 11.734375 -13.273438 11.296875 -13.640625 C 10.867188 -14.003906 10.054688 -14.1875 8.859375 -14.1875 C 8.035156 -14.1875 7.394531 -14.023438 6.9375 -13.703125 C 6.476562 -13.390625 6.101562 -12.828125 5.8125 -12.015625 Z M 11.953125 -8.3125 C 11.378906 -8.125 10.453125 -7.890625 9.171875 -7.609375 C 7.890625 -7.335938 7.0625 -7.070312 6.6875 -6.8125 C 6.082031 -6.394531 5.78125 -5.859375 5.78125 -5.203125 C 5.78125 -4.554688 6.015625 -4 6.484375 -3.53125 C 6.960938 -3.070312 7.570312 -2.84375 8.3125 -2.84375 C 8.820312 -2.84375 9.316406 -2.941406 9.796875 -3.140625 C 10.285156 -3.347656 10.695312 -3.613281 11.03125 -3.9375 C 11.363281 -4.257812 11.597656 -4.617188 11.734375 -5.015625 C 11.878906 -5.421875 11.953125 -6.222656 11.953125 -7.421875 Z M 11.953125 -8.3125 "/></g></g></g><g fill="#f6d44c" fill-opacity="1"><g transform="translate(129.521371, 77.824004)"><g><path d="M 2.390625 0 L 2.390625 -23.90625 L 6.984375 -23.90625 L 6.984375 0 Z M 2.390625 0 "/></g></g></g><g clip-path="url(#a4e84dd9c5)"><g clip-path="url(#c62ba7f150)"><path fill="#737373" d="M 94.40625 66.550781 L 98.957031 66.550781 L 98.957031 71.101562 L 94.40625 71.101562 Z M 94.40625 66.550781 " fill-opacity="1" fill-rule="nonzero"/></g></g><g fill="#f6d44c" fill-opacity="1"><g transform="translate(46.929788, 49.102357)"><g><path d="M 0 0 L 8.1875 -12.5 L 0.765625 -23.90625 L 6.40625 -23.90625 L 11.1875 -16.234375 L 15.90625 -23.90625 L 21.515625 -23.90625 L 14.0625 -12.296875 L 22.25 0 L 16.40625 0 L 11.125 -8.28125 L 5.78125 0 Z M 0 0 "/></g></g></g><g fill="#f6d44c" fill-opacity="1"><g transform="translate(67.512184, 49.102357)"><g><path d="M 17.734375 -8.796875 L 22.40625 -7.328125 C 21.019531 -2.171875 17.71875 0.40625 12.5 0.40625 C 9.3125 0.40625 6.691406 -0.675781 4.640625 -2.84375 C 2.585938 -5.019531 1.5625 -7.992188 1.5625 -11.765625 C 1.5625 -15.722656 2.59375 -18.804688 4.65625 -21.015625 C 6.71875 -23.222656 9.414062 -24.328125 12.75 -24.328125 C 15.695312 -24.328125 18.085938 -23.453125 19.921875 -21.703125 C 21.003906 -20.679688 21.8125 -19.226562 22.34375 -17.34375 L 17.5625 -16.171875 C 17.28125 -17.421875 16.691406 -18.398438 15.796875 -19.109375 C 14.910156 -19.816406 13.820312 -20.171875 12.53125 -20.171875 C 10.75 -20.171875 9.304688 -19.535156 8.203125 -18.265625 C 7.097656 -17.003906 6.546875 -14.945312 6.546875 -12.09375 C 6.546875 -9.082031 7.085938 -6.929688 8.171875 -5.640625 C 9.265625 -4.347656 10.679688 -3.703125 12.421875 -3.703125 C 13.722656 -3.703125 14.832031 -4.113281 15.75 -4.9375 C 16.675781 -5.769531 17.335938 -7.054688 17.734375 -8.796875 Z M 17.734375 -8.796875 "/></g></g></g><g fill="#f6d44c" fill-opacity="1"><g transform="translate(89.938223, 49.102357)"><g><path d="M 2.453125 0 L 2.453125 -23.90625 L 20.171875 -23.90625 L 20.171875 -19.890625 L 7.25 -19.890625 L 7.25 -14.5625 L 19.28125 -14.5625 L 19.28125 -10.515625 L 7.25 -10.515625 L 7.25 -4.046875 L 20.625 -4.046875 L 20.625 0 Z M 2.453125 0 "/></g></g></g><g fill="#f6d44c" fill-opacity="1"><g transform="translate(110.520617, 49.102357)"><g><path d="M 2.578125 0 L 2.578125 -23.90625 L 7.390625 -23.90625 L 7.390625 -4.046875 L 19.40625 -4.046875 L 19.40625 0 Z M 2.578125 0 "/></g></g></g><g fill="#f6d44c" fill-opacity="1"><g transform="translate(129.226742, 49.102357)"><g><path d="M 2.578125 0 L 2.578125 -23.90625 L 7.390625 -23.90625 L 7.390625 -4.046875 L 19.40625 -4.046875 L 19.40625 0 Z M 2.578125 0 "/></g></g></g><g fill="#f6d44c" fill-opacity="1"><g transform="translate(50.788351, 92.68224)"><g><path d="M 4.484375 -4.515625 C 4.453125 -4.921875 4.304688 -5.226562 4.046875 -5.4375 C 3.785156 -5.644531 3.414062 -5.75 2.9375 -5.75 C 2.5 -5.75 2.140625 -5.664062 1.859375 -5.5 C 1.585938 -5.34375 1.453125 -5.109375 1.453125 -4.796875 C 1.453125 -4.515625 1.554688 -4.304688 1.765625 -4.171875 C 1.984375 -4.035156 2.390625 -3.898438 2.984375 -3.765625 C 3.515625 -3.648438 3.945312 -3.53125 4.28125 -3.40625 C 4.613281 -3.289062 4.898438 -3.101562 5.140625 -2.84375 C 5.378906 -2.582031 5.5 -2.238281 5.5 -1.8125 C 5.5 -1.257812 5.28125 -0.800781 4.84375 -0.4375 C 4.40625 -0.0703125 3.832031 0.109375 3.125 0.109375 C 2.226562 0.109375 1.554688 -0.0859375 1.109375 -0.484375 C 0.660156 -0.890625 0.425781 -1.414062 0.40625 -2.0625 L 1.203125 -2.125 C 1.242188 -1.613281 1.441406 -1.238281 1.796875 -1 C 2.148438 -0.769531 2.582031 -0.65625 3.09375 -0.65625 C 3.570312 -0.65625 3.957031 -0.75 4.25 -0.9375 C 4.539062 -1.132812 4.6875 -1.398438 4.6875 -1.734375 C 4.6875 -2.085938 4.53125 -2.34375 4.21875 -2.5 C 3.914062 -2.664062 3.40625 -2.828125 2.6875 -2.984375 C 1.96875 -3.140625 1.445312 -3.359375 1.125 -3.640625 C 0.8125 -3.921875 0.65625 -4.285156 0.65625 -4.734375 C 0.65625 -5.242188 0.851562 -5.664062 1.25 -6 C 1.65625 -6.332031 2.203125 -6.5 2.890625 -6.5 C 3.609375 -6.5 4.179688 -6.332031 4.609375 -6 C 5.046875 -5.664062 5.273438 -5.195312 5.296875 -4.59375 Z M 4.484375 -4.515625 "/></g></g></g><g fill="#f6d44c" fill-opacity="1"><g transform="translate(59.033479, 92.68224)"><g><path d="M 5.484375 0 L 0.703125 0 L 0.703125 -6.390625 L 5.34375 -6.390625 L 5.34375 -5.640625 L 1.546875 -5.640625 L 1.546875 -3.6875 L 5.09375 -3.6875 L 5.09375 -2.921875 L 1.546875 -2.921875 L 1.546875 -0.765625 L 5.484375 -0.765625 Z M 5.484375 0 "/></g></g></g><g fill="#f6d44c" fill-opacity="1"><g transform="translate(67.278607, 92.68224)"><g><path d="M 6.359375 0 L 5.296875 0 C 4.648438 -1.007812 4.25 -1.628906 4.09375 -1.859375 C 3.945312 -2.085938 3.785156 -2.28125 3.609375 -2.4375 C 3.441406 -2.601562 3.28125 -2.707031 3.125 -2.75 C 2.976562 -2.800781 2.785156 -2.828125 2.546875 -2.828125 L 1.5625 -2.828125 L 1.5625 0 L 0.71875 0 L 0.71875 -6.390625 L 3.546875 -6.390625 C 3.929688 -6.390625 4.253906 -6.363281 4.515625 -6.3125 C 4.773438 -6.269531 5.003906 -6.171875 5.203125 -6.015625 C 5.398438 -5.859375 5.550781 -5.65625 5.65625 -5.40625 C 5.769531 -5.164062 5.828125 -4.910156 5.828125 -4.640625 C 5.828125 -4.160156 5.671875 -3.773438 5.359375 -3.484375 C 5.054688 -3.191406 4.613281 -3.003906 4.03125 -2.921875 L 4.03125 -2.90625 C 4.457031 -2.71875 4.859375 -2.328125 5.234375 -1.734375 Z M 1.5625 -3.578125 L 3.375 -3.578125 C 3.738281 -3.578125 4.023438 -3.609375 4.234375 -3.671875 C 4.453125 -3.734375 4.625 -3.851562 4.75 -4.03125 C 4.882812 -4.21875 4.953125 -4.421875 4.953125 -4.640625 C 4.953125 -4.929688 4.84375 -5.175781 4.625 -5.375 C 4.414062 -5.582031 4.066406 -5.6875 3.578125 -5.6875 L 1.5625 -5.6875 Z M 1.5625 -3.578125 "/></g></g></g><g fill="#f6d44c" fill-opacity="1"><g transform="translate(76.017159, 92.68224)"><g><path d="M 5.90625 -6.390625 L 3.390625 0 L 2.53125 0 L 0.046875 -6.390625 L 0.96875 -6.390625 L 2.625 -1.75 C 2.75 -1.457031 2.859375 -1.109375 2.953125 -0.703125 L 2.96875 -0.703125 C 3.0625 -1.046875 3.175781 -1.394531 3.3125 -1.75 L 5.046875 -6.390625 Z M 5.90625 -6.390625 "/></g></g></g><g fill="#f6d44c" fill-opacity="1"><g transform="translate(84.262285, 92.68224)"><g><path d="M 1.671875 0 L 0.828125 0 L 0.828125 -6.390625 L 1.671875 -6.390625 Z M 1.671875 0 "/></g></g></g><g fill="#f6d44c" fill-opacity="1"><g transform="translate(89.02726, 92.68224)"><g><path d="M 6.109375 -2.03125 C 5.921875 -1.3125 5.59375 -0.773438 5.125 -0.421875 C 4.664062 -0.0664062 4.109375 0.109375 3.453125 0.109375 C 2.410156 0.109375 1.648438 -0.21875 1.171875 -0.875 C 0.691406 -1.53125 0.453125 -2.320312 0.453125 -3.25 C 0.453125 -4.269531 0.734375 -5.066406 1.296875 -5.640625 C 1.859375 -6.210938 2.582031 -6.5 3.46875 -6.5 C 4.09375 -6.5 4.625 -6.34375 5.0625 -6.03125 C 5.507812 -5.71875 5.820312 -5.253906 6 -4.640625 L 5.171875 -4.4375 C 5.023438 -4.882812 4.8125 -5.21875 4.53125 -5.4375 C 4.25 -5.664062 3.890625 -5.78125 3.453125 -5.78125 C 2.753906 -5.78125 2.222656 -5.550781 1.859375 -5.09375 C 1.503906 -4.632812 1.328125 -4.019531 1.328125 -3.25 C 1.328125 -2.363281 1.515625 -1.703125 1.890625 -1.265625 C 2.273438 -0.828125 2.773438 -0.609375 3.390625 -0.609375 C 3.890625 -0.609375 4.296875 -0.742188 4.609375 -1.015625 C 4.921875 -1.285156 5.140625 -1.695312 5.265625 -2.25 Z M 6.109375 -2.03125 "/></g></g></g><g fill="#f6d44c" fill-opacity="1"><g transform="translate(97.765812, 92.68224)"><g><path d="M 5.484375 0 L 0.703125 0 L 0.703125 -6.390625 L 5.34375 -6.390625 L 5.34375 -5.640625 L 1.546875 -5.640625 L 1.546875 -3.6875 L 5.09375 -3.6875 L 5.09375 -2.921875 L 1.546875 -2.921875 L 1.546875 -0.765625 L 5.484375 -0.765625 Z M 5.484375 0 "/></g></g></g><g fill="#f6d44c" fill-opacity="1"><g transform="translate(106.010938, 92.68224)"><g><path d="M 4.484375 -4.515625 C 4.453125 -4.921875 4.304688 -5.226562 4.046875 -5.4375 C 3.785156 -5.644531 3.414062 -5.75 2.9375 -5.75 C 2.5 -5.75 2.140625 -5.664062 1.859375 -5.5 C 1.585938 -5.34375 1.453125 -5.109375 1.453125 -4.796875 C 1.453125 -4.515625 1.554688 -4.304688 1.765625 -4.171875 C 1.984375 -4.035156 2.390625 -3.898438 2.984375 -3.765625 C 3.515625 -3.648438 3.945312 -3.53125 4.28125 -3.40625 C 4.613281 -3.289062 4.898438 -3.101562 5.140625 -2.84375 C 5.378906 -2.582031 5.5 -2.238281 5.5 -1.8125 C 5.5 -1.257812 5.28125 -0.800781 4.84375 -0.4375 C 4.40625 -0.0703125 3.832031 0.109375 3.125 0.109375 C 2.226562 0.109375 1.554688 -0.0859375 1.109375 -0.484375 C 0.660156 -0.890625 0.425781 -1.414062 0.40625 -2.0625 L 1.203125 -2.125 C 1.242188 -1.613281 1.441406 -1.238281 1.796875 -1 C 2.148438 -0.769531 2.582031 -0.65625 3.09375 -0.65625 C 3.570312 -0.65625 3.957031 -0.75 4.25 -0.9375 C 4.539062 -1.132812 4.6875 -1.398438 4.6875 -1.734375 C 4.6875 -2.085938 4.53125 -2.34375 4.21875 -2.5 C 3.914062 -2.664062 3.40625 -2.828125 2.6875 -2.984375 C 1.96875 -3.140625 1.445312 -3.359375 1.125 -3.640625 C 0.8125 -3.921875 0.65625 -4.285156 0.65625 -4.734375 C 0.65625 -5.242188 0.851562 -5.664062 1.25 -6 C 1.65625 -6.332031 2.203125 -6.5 2.890625 -6.5 C 3.609375 -6.5 4.179688 -6.332031 4.609375 -6 C 5.046875 -5.664062 5.273438 -5.195312 5.296875 -4.59375 Z M 4.484375 -4.515625 "/></g></g></g></svg>