<svg xmlns="http://www.w3.org/2000/svg" xmlns:xlink="http://www.w3.org/1999/xlink" width="200" zoomAndPan="magnify" viewBox="0 0 150 112.499997" height="150" preserveAspectRatio="xMidYMid meet" version="1.0"><defs><g/><clipPath id="f54903260c"><path d="M 2 24.140625 L 47.371094 24.140625 L 47.371094 90.59375 L 2 90.59375 Z M 2 24.140625 " clip-rule="nonzero"/></clipPath><clipPath id="dc40c4a631"><path d="M 94.40625 66.550781 L 98.957031 66.550781 L 98.957031 71.101562 L 94.40625 71.101562 Z M 94.40625 66.550781 " clip-rule="nonzero"/></clipPath><clipPath id="546af1b197"><path d="M 96.679688 66.550781 C 95.425781 66.550781 94.40625 67.570312 94.40625 68.828125 C 94.40625 70.082031 95.425781 71.101562 96.679688 71.101562 C 97.9375 71.101562 98.957031 70.082031 98.957031 68.828125 C 98.957031 67.570312 97.9375 66.550781 96.679688 66.550781 Z M 96.679688 66.550781 " clip-rule="nonzero"/></clipPath></defs><g clip-path="url(#f54903260c)"><path fill="#000000" d="M 8.261719 67.191406 L 6.015625 64.304688 C 0.335938 57.015625 2.757812 46.300781 11.003906 42.210938 L 47.375 24.179688 L 47.375 31.601562 C 47.375 37.277344 44.160156 42.460938 39.105469 44.945312 L 14.925781 56.839844 C 13.164062 57.703125 11.625 58.972656 10.460938 60.5625 C 9.292969 62.15625 8.285156 64.34375 8.363281 67.105469 C 9.160156 66.46875 10.042969 65.902344 11.003906 65.429688 L 47.371094 47.394531 L 47.371094 54.820312 C 47.371094 60.496094 44.160156 65.675781 39.101562 68.164062 L 14.925781 80.054688 C 13.164062 80.917969 11.625 82.1875 10.460938 83.777344 C 9.257812 85.417969 8.230469 87.683594 8.375 90.550781 L 6.015625 87.523438 C 1.023438 81.117188 2.285156 72.066406 8.261719 67.191406 Z M 31.886719 82.421875 L 47.363281 90.558594 L 47.355469 70.230469 L 31.914062 78.074219 C 30.152344 78.96875 30.136719 81.5 31.886719 82.421875 Z M 31.886719 82.421875 " fill-opacity="1" fill-rule="nonzero"/></g><g fill="#f6d44c" fill-opacity="1"><g transform="translate(46.929788, 77.824002)"><g><path d="M 2.40625 -23.921875 L 11.234375 -23.921875 C 13.609375 -23.921875 15.398438 -23.675781 16.609375 -23.1875 C 17.828125 -22.695312 18.878906 -21.914062 19.765625 -20.84375 C 20.660156 -19.769531 21.332031 -18.507812 21.78125 -17.0625 C 22.226562 -15.613281 22.453125 -13.835938 22.453125 -11.734375 C 22.453125 -10.054688 22.269531 -8.570312 21.90625 -7.28125 C 21.550781 -6 21.046875 -4.859375 20.390625 -3.859375 C 19.734375 -2.867188 18.960938 -2.097656 18.078125 -1.546875 C 17.203125 -1.003906 16.269531 -0.609375 15.28125 -0.359375 C 14.289062 -0.117188 13.03125 0 11.5 0 L 2.40625 0 Z M 7.25 -19.890625 L 7.25 -4.046875 L 10.875 -4.046875 C 12.195312 -4.046875 13.164062 -4.113281 13.78125 -4.25 C 14.550781 -4.445312 15.195312 -4.78125 15.71875 -5.25 C 16.25 -5.71875 16.675781 -6.484375 17 -7.546875 C 17.320312 -8.617188 17.484375 -10.078125 17.484375 -11.921875 C 17.484375 -13.503906 17.363281 -14.769531 17.125 -15.71875 C 16.894531 -16.675781 16.519531 -17.472656 16 -18.109375 C 15.476562 -18.742188 14.800781 -19.195312 13.96875 -19.46875 C 13.144531 -19.75 11.632812 -19.890625 9.4375 -19.890625 Z M 7.25 -19.890625 "/></g></g></g><g fill="#f6d44c" fill-opacity="1"><g transform="translate(69.36093, 77.824002)"><g><path d="M 2.40625 -19.6875 L 2.40625 -23.921875 L 6.984375 -23.921875 L 6.984375 -19.6875 Z M 2.40625 0 L 2.40625 -17.34375 L 6.984375 -17.34375 L 6.984375 0 Z M 2.40625 0 "/></g></g></g><g fill="#f6d44c" fill-opacity="1"><g transform="translate(76.941893, 77.824002)"><g><path d="M 1.96875 1.140625 L 7.21875 1.78125 C 7.320312 2.476562 7.585938 2.941406 8.015625 3.171875 C 8.453125 3.398438 9.066406 3.515625 9.859375 3.515625 C 10.804688 3.515625 11.5625 3.40625 12.125 3.1875 C 12.695312 2.96875 13.101562 2.613281 13.34375 2.125 C 13.582031 1.632812 13.703125 0.835938 13.703125 -0.265625 L 13.703125 -2.8125 C 12.328125 -0.9375 10.585938 0 8.484375 0 C 6.367188 0 4.65625 -0.8125 3.34375 -2.4375 C 2.03125 -4.0625 1.375 -6.171875 1.375 -8.765625 C 1.375 -11.679688 2.070312 -13.898438 3.46875 -15.421875 C 4.875 -16.941406 6.613281 -17.703125 8.6875 -17.703125 C 10.820312 -17.703125 12.582031 -16.769531 13.96875 -14.90625 L 13.96875 -17.34375 L 18.28125 -17.34375 L 18.28125 -1.78125 C 18.28125 0.65625 18.003906 2.457031 17.453125 3.625 C 16.910156 4.789062 16.03125 5.644531 14.8125 6.1875 C 13.601562 6.738281 12.015625 7.015625 10.046875 7.015625 C 7.109375 7.015625 5.023438 6.515625 3.796875 5.515625 C 2.578125 4.515625 1.96875 3.242188 1.96875 1.703125 Z M 6.09375 -9.03125 C 6.09375 -7.175781 6.445312 -5.820312 7.15625 -4.96875 C 7.863281 -4.125 8.734375 -3.703125 9.765625 -3.703125 C 10.890625 -3.703125 11.835938 -4.132812 12.609375 -5 C 13.390625 -5.875 13.78125 -7.179688 13.78125 -8.921875 C 13.78125 -10.710938 13.410156 -12.039062 12.671875 -12.90625 C 11.941406 -13.769531 11.003906 -14.203125 9.859375 -14.203125 C 8.765625 -14.203125 7.863281 -13.78125 7.15625 -12.9375 C 6.445312 -12.09375 6.09375 -10.789062 6.09375 -9.03125 Z M 6.09375 -9.03125 "/></g></g></g><g fill="#f6d44c" fill-opacity="1"><g transform="translate(95.652332, 77.824002)"><g><path d="M 2.40625 -19.6875 L 2.40625 -23.921875 L 6.984375 -23.921875 L 6.984375 -19.6875 Z M 2.40625 0 L 2.40625 -17.34375 L 6.984375 -17.34375 L 6.984375 0 Z M 2.40625 0 "/></g></g></g><g fill="#f6d44c" fill-opacity="1"><g transform="translate(103.233294, 77.824002)"><g><path d="M 10.359375 -17.34375 L 10.359375 -13.671875 L 7.21875 -13.671875 L 7.21875 -6.6875 C 7.21875 -5.28125 7.242188 -4.460938 7.296875 -4.234375 C 7.359375 -4.003906 7.492188 -3.804688 7.703125 -3.640625 C 7.921875 -3.484375 8.179688 -3.40625 8.484375 -3.40625 C 8.910156 -3.40625 9.523438 -3.550781 10.328125 -3.84375 L 10.71875 -0.296875 C 9.65625 0.171875 8.441406 0.40625 7.078125 0.40625 C 6.109375 0.40625 5.253906 0.210938 4.515625 -0.171875 C 3.773438 -0.566406 3.269531 -1.144531 3 -1.90625 C 2.738281 -2.664062 2.609375 -4.070312 2.609375 -6.125 L 2.609375 -13.671875 L 0.5 -13.671875 L 0.5 -17.34375 L 2.609375 -17.34375 L 2.609375 -20.796875 L 7.21875 -23.46875 L 7.21875 -17.34375 Z M 10.359375 -17.34375 "/></g></g></g><g fill="#f6d44c" fill-opacity="1"><g transform="translate(112.658288, 77.824002)"><g><path d="M 5.8125 -12.03125 L 1.671875 -12.796875 C 2.128906 -14.472656 2.925781 -15.707031 4.0625 -16.5 C 5.207031 -17.300781 6.90625 -17.703125 9.15625 -17.703125 C 11.207031 -17.703125 12.734375 -17.460938 13.734375 -16.984375 C 14.742188 -16.503906 15.453125 -15.890625 15.859375 -15.140625 C 16.273438 -14.398438 16.484375 -13.039062 16.484375 -11.0625 L 16.421875 -5.671875 C 16.421875 -4.160156 16.488281 -3.039062 16.625 -2.3125 C 16.769531 -1.59375 17.039062 -0.820312 17.4375 0 L 12.9375 0 C 12.820312 -0.257812 12.703125 -0.625 12.578125 -1.09375 C 12.453125 -1.5625 12.375 -1.832031 12.34375 -1.90625 C 10.75 -0.363281 8.953125 0.40625 6.953125 0.40625 C 5.171875 0.40625 3.765625 -0.078125 2.734375 -1.046875 C 1.710938 -2.023438 1.203125 -3.257812 1.203125 -4.75 C 1.203125 -5.726562 1.4375 -6.59375 1.90625 -7.34375 C 2.375 -8.101562 3.023438 -8.6875 3.859375 -9.09375 C 4.691406 -9.507812 5.910156 -9.878906 7.515625 -10.203125 C 9.648438 -10.597656 11.132812 -10.960938 11.96875 -11.296875 L 11.96875 -11.765625 C 11.96875 -12.660156 11.75 -13.289062 11.3125 -13.65625 C 10.875 -14.019531 10.054688 -14.203125 8.859375 -14.203125 C 8.035156 -14.203125 7.394531 -14.039062 6.9375 -13.71875 C 6.476562 -13.394531 6.101562 -12.832031 5.8125 -12.03125 Z M 11.96875 -8.328125 C 11.382812 -8.128906 10.453125 -7.894531 9.171875 -7.625 C 7.890625 -7.351562 7.0625 -7.085938 6.6875 -6.828125 C 6.082031 -6.398438 5.78125 -5.859375 5.78125 -5.203125 C 5.78125 -4.566406 6.019531 -4.015625 6.5 -3.546875 C 6.976562 -3.078125 7.585938 -2.84375 8.328125 -2.84375 C 8.835938 -2.84375 9.332031 -2.941406 9.8125 -3.140625 C 10.300781 -3.347656 10.707031 -3.613281 11.03125 -3.9375 C 11.363281 -4.257812 11.601562 -4.617188 11.75 -5.015625 C 11.894531 -5.421875 11.96875 -6.222656 11.96875 -7.421875 Z M 11.96875 -8.328125 "/></g></g></g><g fill="#f6d44c" fill-opacity="1"><g transform="translate(129.541009, 77.824002)"><g><path d="M 2.40625 0 L 2.40625 -23.921875 L 6.984375 -23.921875 L 6.984375 0 Z M 2.40625 0 "/></g></g></g><g clip-path="url(#dc40c4a631)"><g clip-path="url(#546af1b197)"><path fill="#f6d44c" d="M 94.40625 66.550781 L 98.957031 66.550781 L 98.957031 71.101562 L 94.40625 71.101562 Z M 94.40625 66.550781 " fill-opacity="1" fill-rule="nonzero"/></g></g><g fill="#000000" fill-opacity="1"><g transform="translate(46.929788, 49.709344)"><g><path d="M 0 0 L 8.1875 -12.5 L 0.765625 -23.921875 L 6.40625 -23.921875 L 11.1875 -16.234375 L 15.90625 -23.921875 L 21.53125 -23.921875 L 14.0625 -12.3125 L 22.265625 0 L 16.421875 0 L 11.125 -8.296875 L 5.78125 0 Z M 0 0 "/></g></g></g><g fill="#000000" fill-opacity="1"><g transform="translate(67.5169, 49.709344)"><g><path d="M 17.734375 -8.796875 L 22.421875 -7.328125 C 21.023438 -2.171875 17.71875 0.40625 12.5 0.40625 C 9.3125 0.40625 6.691406 -0.679688 4.640625 -2.859375 C 2.585938 -5.035156 1.5625 -8.003906 1.5625 -11.765625 C 1.5625 -15.722656 2.59375 -18.804688 4.65625 -21.015625 C 6.71875 -23.222656 9.421875 -24.328125 12.765625 -24.328125 C 15.710938 -24.328125 18.097656 -23.457031 19.921875 -21.71875 C 21.015625 -20.695312 21.828125 -19.238281 22.359375 -17.34375 L 17.578125 -16.171875 C 17.296875 -17.421875 16.707031 -18.398438 15.8125 -19.109375 C 14.914062 -19.828125 13.820312 -20.1875 12.53125 -20.1875 C 10.75 -20.1875 9.304688 -19.550781 8.203125 -18.28125 C 7.097656 -17.019531 6.546875 -14.957031 6.546875 -12.09375 C 6.546875 -9.09375 7.09375 -6.941406 8.1875 -5.640625 C 9.28125 -4.347656 10.695312 -3.703125 12.4375 -3.703125 C 13.726562 -3.703125 14.835938 -4.113281 15.765625 -4.9375 C 16.691406 -5.769531 17.347656 -7.054688 17.734375 -8.796875 Z M 17.734375 -8.796875 "/></g></g></g><g fill="#000000" fill-opacity="1"><g transform="translate(89.948044, 49.709344)"><g><path d="M 2.453125 0 L 2.453125 -23.921875 L 20.1875 -23.921875 L 20.1875 -19.890625 L 7.25 -19.890625 L 7.25 -14.578125 L 19.296875 -14.578125 L 19.296875 -10.53125 L 7.25 -10.53125 L 7.25 -4.046875 L 20.625 -4.046875 L 20.625 0 Z M 2.453125 0 "/></g></g></g><g fill="#000000" fill-opacity="1"><g transform="translate(110.535154, 49.709344)"><g><path d="M 2.578125 0 L 2.578125 -23.921875 L 7.390625 -23.921875 L 7.390625 -4.046875 L 19.421875 -4.046875 L 19.421875 0 Z M 2.578125 0 "/></g></g></g><g fill="#000000" fill-opacity="1"><g transform="translate(129.245597, 49.709344)"><g><path d="M 2.578125 0 L 2.578125 -23.921875 L 7.390625 -23.921875 L 7.390625 -4.046875 L 19.421875 -4.046875 L 19.421875 0 Z M 2.578125 0 "/></g></g></g><g fill="#000000" fill-opacity="1"><g transform="translate(50.788351, 92.68224)"><g><path d="M 4.484375 -4.515625 C 4.453125 -4.921875 4.304688 -5.226562 4.046875 -5.4375 C 3.785156 -5.644531 3.414062 -5.75 2.9375 -5.75 C 2.5 -5.75 2.140625 -5.664062 1.859375 -5.5 C 1.585938 -5.34375 1.453125 -5.109375 1.453125 -4.796875 C 1.453125 -4.515625 1.554688 -4.304688 1.765625 -4.171875 C 1.984375 -4.035156 2.390625 -3.898438 2.984375 -3.765625 C 3.515625 -3.648438 3.945312 -3.53125 4.28125 -3.40625 C 4.613281 -3.289062 4.898438 -3.101562 5.140625 -2.84375 C 5.378906 -2.582031 5.5 -2.238281 5.5 -1.8125 C 5.5 -1.257812 5.28125 -0.800781 4.84375 -0.4375 C 4.40625 -0.0703125 3.832031 0.109375 3.125 0.109375 C 2.226562 0.109375 1.554688 -0.0859375 1.109375 -0.484375 C 0.660156 -0.890625 0.425781 -1.414062 0.40625 -2.0625 L 1.203125 -2.125 C 1.242188 -1.613281 1.441406 -1.238281 1.796875 -1 C 2.148438 -0.769531 2.582031 -0.65625 3.09375 -0.65625 C 3.570312 -0.65625 3.957031 -0.75 4.25 -0.9375 C 4.539062 -1.132812 4.6875 -1.398438 4.6875 -1.734375 C 4.6875 -2.085938 4.53125 -2.34375 4.21875 -2.5 C 3.914062 -2.664062 3.40625 -2.828125 2.6875 -2.984375 C 1.96875 -3.140625 1.445312 -3.359375 1.125 -3.640625 C 0.8125 -3.921875 0.65625 -4.285156 0.65625 -4.734375 C 0.65625 -5.242188 0.851562 -5.664062 1.25 -6 C 1.65625 -6.332031 2.203125 -6.5 2.890625 -6.5 C 3.609375 -6.5 4.179688 -6.332031 4.609375 -6 C 5.046875 -5.664062 5.273438 -5.195312 5.296875 -4.59375 Z M 4.484375 -4.515625 "/></g></g></g><g fill="#000000" fill-opacity="1"><g transform="translate(59.033479, 92.68224)"><g><path d="M 5.484375 0 L 0.703125 0 L 0.703125 -6.390625 L 5.34375 -6.390625 L 5.34375 -5.640625 L 1.546875 -5.640625 L 1.546875 -3.6875 L 5.09375 -3.6875 L 5.09375 -2.921875 L 1.546875 -2.921875 L 1.546875 -0.765625 L 5.484375 -0.765625 Z M 5.484375 0 "/></g></g></g><g fill="#000000" fill-opacity="1"><g transform="translate(67.278607, 92.68224)"><g><path d="M 6.359375 0 L 5.296875 0 C 4.648438 -1.007812 4.25 -1.628906 4.09375 -1.859375 C 3.945312 -2.085938 3.785156 -2.28125 3.609375 -2.4375 C 3.441406 -2.601562 3.28125 -2.707031 3.125 -2.75 C 2.976562 -2.800781 2.785156 -2.828125 2.546875 -2.828125 L 1.5625 -2.828125 L 1.5625 0 L 0.71875 0 L 0.71875 -6.390625 L 3.546875 -6.390625 C 3.929688 -6.390625 4.253906 -6.363281 4.515625 -6.3125 C 4.773438 -6.269531 5.003906 -6.171875 5.203125 -6.015625 C 5.398438 -5.859375 5.550781 -5.65625 5.65625 -5.40625 C 5.769531 -5.164062 5.828125 -4.910156 5.828125 -4.640625 C 5.828125 -4.160156 5.671875 -3.773438 5.359375 -3.484375 C 5.054688 -3.191406 4.613281 -3.003906 4.03125 -2.921875 L 4.03125 -2.90625 C 4.457031 -2.71875 4.859375 -2.328125 5.234375 -1.734375 Z M 1.5625 -3.578125 L 3.375 -3.578125 C 3.738281 -3.578125 4.023438 -3.609375 4.234375 -3.671875 C 4.453125 -3.734375 4.625 -3.851562 4.75 -4.03125 C 4.882812 -4.21875 4.953125 -4.421875 4.953125 -4.640625 C 4.953125 -4.929688 4.84375 -5.175781 4.625 -5.375 C 4.414062 -5.582031 4.066406 -5.6875 3.578125 -5.6875 L 1.5625 -5.6875 Z M 1.5625 -3.578125 "/></g></g></g><g fill="#000000" fill-opacity="1"><g transform="translate(76.017159, 92.68224)"><g><path d="M 5.90625 -6.390625 L 3.390625 0 L 2.53125 0 L 0.046875 -6.390625 L 0.96875 -6.390625 L 2.625 -1.75 C 2.75 -1.457031 2.859375 -1.109375 2.953125 -0.703125 L 2.96875 -0.703125 C 3.0625 -1.046875 3.175781 -1.394531 3.3125 -1.75 L 5.046875 -6.390625 Z M 5.90625 -6.390625 "/></g></g></g><g fill="#000000" fill-opacity="1"><g transform="translate(84.262285, 92.68224)"><g><path d="M 1.671875 0 L 0.828125 0 L 0.828125 -6.390625 L 1.671875 -6.390625 Z M 1.671875 0 "/></g></g></g><g fill="#000000" fill-opacity="1"><g transform="translate(89.02726, 92.68224)"><g><path d="M 6.109375 -2.03125 C 5.921875 -1.3125 5.59375 -0.773438 5.125 -0.421875 C 4.664062 -0.0664062 4.109375 0.109375 3.453125 0.109375 C 2.410156 0.109375 1.648438 -0.21875 1.171875 -0.875 C 0.691406 -1.53125 0.453125 -2.320312 0.453125 -3.25 C 0.453125 -4.269531 0.734375 -5.066406 1.296875 -5.640625 C 1.859375 -6.210938 2.582031 -6.5 3.46875 -6.5 C 4.09375 -6.5 4.625 -6.34375 5.0625 -6.03125 C 5.507812 -5.71875 5.820312 -5.253906 6 -4.640625 L 5.171875 -4.4375 C 5.023438 -4.882812 4.8125 -5.21875 4.53125 -5.4375 C 4.25 -5.664062 3.890625 -5.78125 3.453125 -5.78125 C 2.753906 -5.78125 2.222656 -5.550781 1.859375 -5.09375 C 1.503906 -4.632812 1.328125 -4.019531 1.328125 -3.25 C 1.328125 -2.363281 1.515625 -1.703125 1.890625 -1.265625 C 2.273438 -0.828125 2.773438 -0.609375 3.390625 -0.609375 C 3.890625 -0.609375 4.296875 -0.742188 4.609375 -1.015625 C 4.921875 -1.285156 5.140625 -1.695312 5.265625 -2.25 Z M 6.109375 -2.03125 "/></g></g></g><g fill="#000000" fill-opacity="1"><g transform="translate(97.765812, 92.68224)"><g><path d="M 5.484375 0 L 0.703125 0 L 0.703125 -6.390625 L 5.34375 -6.390625 L 5.34375 -5.640625 L 1.546875 -5.640625 L 1.546875 -3.6875 L 5.09375 -3.6875 L 5.09375 -2.921875 L 1.546875 -2.921875 L 1.546875 -0.765625 L 5.484375 -0.765625 Z M 5.484375 0 "/></g></g></g><g fill="#000000" fill-opacity="1"><g transform="translate(106.010938, 92.68224)"><g><path d="M 4.484375 -4.515625 C 4.453125 -4.921875 4.304688 -5.226562 4.046875 -5.4375 C 3.785156 -5.644531 3.414062 -5.75 2.9375 -5.75 C 2.5 -5.75 2.140625 -5.664062 1.859375 -5.5 C 1.585938 -5.34375 1.453125 -5.109375 1.453125 -4.796875 C 1.453125 -4.515625 1.554688 -4.304688 1.765625 -4.171875 C 1.984375 -4.035156 2.390625 -3.898438 2.984375 -3.765625 C 3.515625 -3.648438 3.945312 -3.53125 4.28125 -3.40625 C 4.613281 -3.289062 4.898438 -3.101562 5.140625 -2.84375 C 5.378906 -2.582031 5.5 -2.238281 5.5 -1.8125 C 5.5 -1.257812 5.28125 -0.800781 4.84375 -0.4375 C 4.40625 -0.0703125 3.832031 0.109375 3.125 0.109375 C 2.226562 0.109375 1.554688 -0.0859375 1.109375 -0.484375 C 0.660156 -0.890625 0.425781 -1.414062 0.40625 -2.0625 L 1.203125 -2.125 C 1.242188 -1.613281 1.441406 -1.238281 1.796875 -1 C 2.148438 -0.769531 2.582031 -0.65625 3.09375 -0.65625 C 3.570312 -0.65625 3.957031 -0.75 4.25 -0.9375 C 4.539062 -1.132812 4.6875 -1.398438 4.6875 -1.734375 C 4.6875 -2.085938 4.53125 -2.34375 4.21875 -2.5 C 3.914062 -2.664062 3.40625 -2.828125 2.6875 -2.984375 C 1.96875 -3.140625 1.445312 -3.359375 1.125 -3.640625 C 0.8125 -3.921875 0.65625 -4.285156 0.65625 -4.734375 C 0.65625 -5.242188 0.851562 -5.664062 1.25 -6 C 1.65625 -6.332031 2.203125 -6.5 2.890625 -6.5 C 3.609375 -6.5 4.179688 -6.332031 4.609375 -6 C 5.046875 -5.664062 5.273438 -5.195312 5.296875 -4.59375 Z M 4.484375 -4.515625 "/></g></g></g></svg>