<svg xmlns="http://www.w3.org/2000/svg" xmlns:xlink="http://www.w3.org/1999/xlink" width="500" zoomAndPan="magnify" viewBox="0 0 375 374.999991" height="500" preserveAspectRatio="xMidYMid meet" version="1.0"><defs><g/><clipPath id="ba1644ffd9"><path d="M 6 96.007812 L 111 96.007812 L 111 251.261719 L 6 251.261719 Z M 6 96.007812 " clip-rule="nonzero"/></clipPath><clipPath id="740fc970cc"><path d="M 245.855469 194.214844 L 256.511719 194.214844 L 256.511719 204.871094 L 245.855469 204.871094 Z M 245.855469 194.214844 " clip-rule="nonzero"/></clipPath><clipPath id="215cc55d1d"><path d="M 251.183594 194.214844 C 248.242188 194.214844 245.855469 196.601562 245.855469 199.542969 C 245.855469 202.484375 248.242188 204.871094 251.183594 204.871094 C 254.125 204.871094 256.511719 202.484375 256.511719 199.542969 C 256.511719 196.601562 254.125 194.214844 251.183594 194.214844 Z M 251.183594 194.214844 " clip-rule="nonzero"/></clipPath></defs><rect x="-37.5" width="450" fill="#ffffff" y="-37.499999" height="449.999989" fill-opacity="1"/><rect x="-37.5" width="450" fill="#ffffff" y="-37.499999" height="449.999989" fill-opacity="1"/><g clip-path="url(#ba1644ffd9)"><path fill="#000000" d="M 18.710938 196.589844 L 13.410156 189.851562 C 0.0078125 172.816406 5.722656 147.773438 25.183594 138.222656 L 111.003906 96.085938 L 111.003906 113.429688 C 111.003906 126.695312 103.421875 138.804688 91.488281 144.613281 L 34.433594 172.402344 C 30.28125 174.421875 26.644531 177.386719 23.898438 181.097656 C 21.140625 184.828125 18.769531 189.941406 18.953125 196.394531 C 20.835938 194.902344 22.917969 193.582031 25.179688 192.472656 L 111 150.335938 L 111 167.679688 C 111 180.949219 103.417969 193.054688 91.484375 198.863281 L 34.433594 226.648438 C 30.28125 228.667969 26.644531 231.632812 23.898438 235.347656 C 21.066406 239.179688 18.640625 244.472656 18.976562 251.175781 L 13.410156 244.101562 C 1.632812 229.132812 4.613281 207.980469 18.710938 196.589844 Z M 74.453125 232.175781 L 110.972656 251.195312 L 110.960938 203.691406 L 74.523438 222.023438 C 70.371094 224.113281 70.332031 230.03125 74.453125 232.175781 Z M 74.453125 232.175781 " fill-opacity="1" fill-rule="nonzero"/></g><g fill="#f6d44c" fill-opacity="1"><g transform="translate(134.674508, 220.611713)"><g><path d="M 5.625 -56.03125 L 26.296875 -56.03125 C 31.867188 -56.03125 36.078125 -55.453125 38.921875 -54.296875 C 41.765625 -53.148438 44.226562 -51.320312 46.3125 -48.8125 C 48.40625 -46.3125 49.972656 -43.359375 51.015625 -39.953125 C 52.054688 -36.554688 52.578125 -32.398438 52.578125 -27.484375 C 52.578125 -23.554688 52.15625 -20.082031 51.3125 -17.0625 C 50.476562 -14.039062 49.289062 -11.367188 47.75 -9.046875 C 46.207031 -6.734375 44.40625 -4.929688 42.34375 -3.640625 C 40.28125 -2.359375 38.085938 -1.429688 35.765625 -0.859375 C 33.453125 -0.285156 30.507812 0 26.9375 0 L 5.625 0 Z M 16.96875 -46.578125 L 16.96875 -9.484375 L 25.453125 -9.484375 C 28.554688 -9.484375 30.820312 -9.632812 32.25 -9.9375 C 34.0625 -10.414062 35.582031 -11.203125 36.8125 -12.296875 C 38.050781 -13.398438 39.046875 -15.195312 39.796875 -17.6875 C 40.546875 -20.1875 40.921875 -23.601562 40.921875 -27.9375 C 40.921875 -31.632812 40.644531 -34.597656 40.09375 -36.828125 C 39.550781 -39.054688 38.675781 -40.914062 37.46875 -42.40625 C 36.257812 -43.894531 34.679688 -44.960938 32.734375 -45.609375 C 30.785156 -46.253906 27.238281 -46.578125 22.09375 -46.578125 Z M 16.96875 -46.578125 "/></g></g></g><g fill="#f6d44c" fill-opacity="1"><g transform="translate(187.204666, 220.611713)"><g><path d="M 5.625 -46.09375 L 5.625 -56.03125 L 16.359375 -56.03125 L 16.359375 -46.09375 Z M 5.625 0 L 5.625 -40.625 L 16.359375 -40.625 L 16.359375 0 Z M 5.625 0 "/></g></g></g><g fill="#f6d44c" fill-opacity="1"><g transform="translate(204.958073, 220.611713)"><g><path d="M 4.625 2.671875 L 16.890625 4.171875 C 17.148438 5.796875 17.78125 6.875 18.78125 7.40625 C 19.789062 7.945312 21.222656 8.21875 23.078125 8.21875 C 25.296875 8.21875 27.070312 7.960938 28.40625 7.453125 C 29.75 6.941406 30.695312 6.113281 31.25 4.96875 C 31.8125 3.820312 32.09375 1.960938 32.09375 -0.609375 L 32.09375 -6.578125 C 28.863281 -2.191406 24.789062 0 19.875 0 C 14.925781 0 10.910156 -1.898438 7.828125 -5.703125 C 4.742188 -9.515625 3.203125 -14.453125 3.203125 -20.515625 C 3.203125 -27.347656 4.84375 -32.546875 8.125 -36.109375 C 11.414062 -39.679688 15.484375 -41.46875 20.328125 -41.46875 C 25.347656 -41.46875 29.476562 -39.273438 32.71875 -34.890625 L 32.71875 -40.625 L 42.796875 -40.625 L 42.796875 -4.171875 C 42.796875 1.535156 42.160156 5.753906 40.890625 8.484375 C 39.617188 11.210938 37.5625 13.21875 34.71875 14.5 C 31.875 15.789062 28.148438 16.4375 23.546875 16.4375 C 16.660156 16.4375 11.785156 15.265625 8.921875 12.921875 C 6.054688 10.578125 4.625 7.59375 4.625 3.96875 Z M 14.25 -21.140625 C 14.25 -16.804688 15.082031 -13.644531 16.75 -11.65625 C 18.425781 -9.664062 20.460938 -8.671875 22.859375 -8.671875 C 25.503906 -8.671875 27.726562 -9.691406 29.53125 -11.734375 C 31.34375 -13.773438 32.25 -16.832031 32.25 -20.90625 C 32.25 -25.082031 31.390625 -28.179688 29.671875 -30.203125 C 27.953125 -32.234375 25.753906 -33.25 23.078125 -33.25 C 20.535156 -33.25 18.425781 -32.257812 16.75 -30.28125 C 15.082031 -28.3125 14.25 -25.265625 14.25 -21.140625 Z M 14.25 -21.140625 "/></g></g></g><g fill="#f6d44c" fill-opacity="1"><g transform="translate(248.774939, 220.611713)"><g><path d="M 5.625 -46.09375 L 5.625 -56.03125 L 16.359375 -56.03125 L 16.359375 -46.09375 Z M 5.625 0 L 5.625 -40.625 L 16.359375 -40.625 L 16.359375 0 Z M 5.625 0 "/></g></g></g><g fill="#f6d44c" fill-opacity="1"><g transform="translate(266.528342, 220.611713)"><g><path d="M 24.265625 -40.625 L 24.265625 -32.03125 L 16.890625 -32.03125 L 16.890625 -15.671875 C 16.890625 -12.378906 16.957031 -10.457031 17.09375 -9.90625 C 17.238281 -9.363281 17.554688 -8.90625 18.046875 -8.53125 C 18.546875 -8.164062 19.15625 -7.984375 19.875 -7.984375 C 20.863281 -7.984375 22.300781 -8.328125 24.1875 -9.015625 L 25.109375 -0.6875 C 22.609375 0.40625 19.765625 0.953125 16.578125 0.953125 C 14.316406 0.953125 12.316406 0.492188 10.578125 -0.421875 C 8.847656 -1.335938 7.671875 -2.6875 7.046875 -4.46875 C 6.421875 -6.25 6.109375 -9.535156 6.109375 -14.328125 L 6.109375 -32.03125 L 1.1875 -32.03125 L 1.1875 -40.625 L 6.109375 -40.625 L 6.109375 -48.6875 L 16.890625 -54.953125 L 16.890625 -40.625 Z M 24.265625 -40.625 "/></g></g></g><g fill="#f6d44c" fill-opacity="1"><g transform="translate(288.600177, 220.611713)"><g><path d="M 13.609375 -28.171875 L 3.890625 -29.96875 C 4.992188 -33.882812 6.875 -36.78125 9.53125 -38.65625 C 12.195312 -40.53125 16.164062 -41.46875 21.4375 -41.46875 C 26.25 -41.46875 29.828125 -40.90625 32.171875 -39.78125 C 34.515625 -38.65625 36.171875 -37.21875 37.140625 -35.46875 C 38.109375 -33.726562 38.59375 -30.539062 38.59375 -25.90625 L 38.4375 -13.296875 C 38.4375 -9.753906 38.601562 -7.132812 38.9375 -5.4375 C 39.269531 -3.75 39.910156 -1.9375 40.859375 0 L 30.3125 0 C 30.03125 -0.613281 29.738281 -1.46875 29.4375 -2.5625 C 29.144531 -3.65625 28.960938 -4.289062 28.890625 -4.46875 C 25.171875 -0.851562 20.96875 0.953125 16.28125 0.953125 C 12.101562 0.953125 8.816406 -0.1875 6.421875 -2.46875 C 4.023438 -4.75 2.828125 -7.632812 2.828125 -11.125 C 2.828125 -13.414062 3.375 -15.445312 4.46875 -17.21875 C 5.5625 -18.988281 7.082031 -20.359375 9.03125 -21.328125 C 10.988281 -22.296875 13.851562 -23.148438 17.625 -23.890625 C 22.613281 -24.828125 26.078125 -25.675781 28.015625 -26.4375 L 28.015625 -27.546875 C 28.015625 -29.640625 27.503906 -31.113281 26.484375 -31.96875 C 25.460938 -32.820312 23.550781 -33.25 20.75 -33.25 C 18.8125 -33.25 17.304688 -32.875 16.234375 -32.125 C 15.171875 -31.375 14.296875 -30.054688 13.609375 -28.171875 Z M 28.015625 -19.484375 C 26.660156 -19.023438 24.476562 -18.476562 21.46875 -17.84375 C 18.46875 -17.207031 16.535156 -16.582031 15.671875 -15.96875 C 14.242188 -14.976562 13.53125 -13.71875 13.53125 -12.1875 C 13.53125 -10.6875 14.085938 -9.390625 15.203125 -8.296875 C 16.328125 -7.203125 17.753906 -6.65625 19.484375 -6.65625 C 20.679688 -6.65625 21.847656 -6.894531 22.984375 -7.375 C 24.117188 -7.863281 25.070312 -8.484375 25.84375 -9.234375 C 26.625 -9.984375 27.179688 -10.828125 27.515625 -11.765625 C 27.847656 -12.710938 28.015625 -14.585938 28.015625 -17.390625 Z M 28.015625 -19.484375 "/></g></g></g><g fill="#f6d44c" fill-opacity="1"><g transform="translate(328.136819, 220.611713)"><g><path d="M 5.625 0 L 5.625 -56.03125 L 16.359375 -56.03125 L 16.359375 0 Z M 5.625 0 "/></g></g></g><g clip-path="url(#740fc970cc)"><g clip-path="url(#215cc55d1d)"><path fill="#f6d44c" d="M 245.855469 194.214844 L 256.511719 194.214844 L 256.511719 204.871094 L 245.855469 204.871094 Z M 245.855469 194.214844 " fill-opacity="1" fill-rule="nonzero"/></g></g><g fill="#000000" fill-opacity="1"><g transform="translate(134.674508, 154.771663)"><g><path d="M 0 0 L 19.1875 -29.265625 L 1.796875 -56.03125 L 15.015625 -56.03125 L 26.21875 -38.03125 L 37.265625 -56.03125 L 50.40625 -56.03125 L 32.9375 -28.8125 L 52.125 0 L 38.4375 0 L 26.0625 -19.40625 L 13.53125 0 Z M 0 0 "/></g></g></g><g fill="#000000" fill-opacity="1"><g transform="translate(182.886241, 154.771663)"><g><path d="M 41.546875 -20.59375 L 52.515625 -17.15625 C 49.242188 -5.082031 41.492188 0.953125 29.265625 0.953125 C 21.804688 0.953125 15.675781 -1.59375 10.875 -6.6875 C 6.070312 -11.78125 3.671875 -18.734375 3.671875 -27.546875 C 3.671875 -36.828125 6.082031 -44.050781 10.90625 -49.21875 C 15.738281 -54.394531 22.066406 -56.984375 29.890625 -56.984375 C 36.785156 -56.984375 42.375 -54.941406 46.65625 -50.859375 C 49.207031 -48.460938 51.109375 -45.050781 52.359375 -40.625 L 41.15625 -37.875 C 40.5 -40.800781 39.125 -43.097656 37.03125 -44.765625 C 34.9375 -46.429688 32.375 -47.265625 29.34375 -47.265625 C 25.164062 -47.265625 21.785156 -45.78125 19.203125 -42.8125 C 16.617188 -39.851562 15.328125 -35.019531 15.328125 -28.3125 C 15.328125 -21.28125 16.601562 -16.25 19.15625 -13.21875 C 21.71875 -10.1875 25.039062 -8.671875 29.125 -8.671875 C 32.15625 -8.671875 34.753906 -9.640625 36.921875 -11.578125 C 39.085938 -13.515625 40.628906 -16.519531 41.546875 -20.59375 Z M 41.546875 -20.59375 "/></g></g></g><g fill="#000000" fill-opacity="1"><g transform="translate(235.416406, 154.771663)"><g><path d="M 5.734375 0 L 5.734375 -56.03125 L 47.265625 -56.03125 L 47.265625 -46.578125 L 16.96875 -46.578125 L 16.96875 -34.125 L 45.171875 -34.125 L 45.171875 -24.65625 L 16.96875 -24.65625 L 16.96875 -9.484375 L 48.296875 -9.484375 L 48.296875 0 Z M 5.734375 0 "/></g></g></g><g fill="#000000" fill-opacity="1"><g transform="translate(283.628135, 154.771663)"><g><path d="M 6.03125 0 L 6.03125 -56.03125 L 17.3125 -56.03125 L 17.3125 -9.484375 L 45.484375 -9.484375 L 45.484375 0 Z M 6.03125 0 "/></g></g></g><g fill="#000000" fill-opacity="1"><g transform="translate(327.44501, 154.771663)"><g><path d="M 6.03125 0 L 6.03125 -56.03125 L 17.3125 -56.03125 L 17.3125 -9.484375 L 45.484375 -9.484375 L 45.484375 0 Z M 6.03125 0 "/></g></g></g><g fill="#000000" fill-opacity="1"><g transform="translate(134.674508, 257.091743)"><g><path d="M 0.75 -4.875 L 3.703125 -5.171875 C 3.867188 -4.179688 4.222656 -3.453125 4.765625 -2.984375 C 5.316406 -2.515625 6.050781 -2.28125 6.96875 -2.28125 C 7.945312 -2.28125 8.679688 -2.484375 9.171875 -2.890625 C 9.671875 -3.304688 9.921875 -3.796875 9.921875 -4.359375 C 9.921875 -4.703125 9.816406 -5 9.609375 -5.25 C 9.398438 -5.507812 9.039062 -5.726562 8.53125 -5.90625 C 8.15625 -6.03125 7.34375 -6.242188 6.09375 -6.546875 C 4.46875 -6.953125 3.328125 -7.445312 2.671875 -8.03125 C 1.753906 -8.851562 1.296875 -9.859375 1.296875 -11.046875 C 1.296875 -11.816406 1.507812 -12.535156 1.9375 -13.203125 C 2.375 -13.867188 3 -14.375 3.8125 -14.71875 C 4.632812 -15.070312 5.617188 -15.25 6.765625 -15.25 C 8.648438 -15.25 10.066406 -14.832031 11.015625 -14 C 11.960938 -13.175781 12.46875 -12.078125 12.53125 -10.703125 L 9.484375 -10.578125 C 9.359375 -11.335938 9.082031 -11.882812 8.65625 -12.21875 C 8.226562 -12.5625 7.585938 -12.734375 6.734375 -12.734375 C 5.984375 -12.734375 5.367188 -12.601562 4.890625 -12.34375 C 4.421875 -12.09375 4.1875 -11.734375 4.1875 -11.265625 C 4.1875 -10.921875 4.34375 -10.617188 4.65625 -10.359375 C 5.03125 -10.046875 5.953125 -9.710938 7.421875 -9.359375 C 8.890625 -9.003906 9.976562 -8.644531 10.6875 -8.28125 C 11.394531 -7.914062 11.945312 -7.40625 12.34375 -6.75 C 12.738281 -6.101562 12.9375 -5.304688 12.9375 -4.359375 C 12.9375 -3.503906 12.695312 -2.703125 12.21875 -1.953125 C 11.75 -1.210938 11.078125 -0.65625 10.203125 -0.28125 C 9.328125 0.09375 8.242188 0.28125 6.953125 0.28125 C 3.210938 0.28125 1.144531 -1.4375 0.75 -4.875 Z M 0.75 -4.875 "/></g></g></g><g fill="#000000" fill-opacity="1"><g transform="translate(153.983285, 257.091743)"><g><path d="M 0.90625 -7.40625 C 0.90625 -8.644531 1.054688 -9.722656 1.359375 -10.640625 C 1.671875 -11.566406 2.171875 -12.40625 2.859375 -13.15625 C 3.546875 -13.914062 4.320312 -14.453125 5.1875 -14.765625 C 6.0625 -15.085938 7.054688 -15.25 8.171875 -15.25 C 10.367188 -15.25 12.128906 -14.5625 13.453125 -13.1875 C 14.785156 -11.820312 15.453125 -9.914062 15.453125 -7.46875 C 15.453125 -5.0625 14.789062 -3.171875 13.46875 -1.796875 C 12.144531 -0.429688 10.390625 0.25 8.203125 0.25 C 5.972656 0.25 4.195312 -0.425781 2.875 -1.78125 C 1.5625 -3.144531 0.90625 -5.019531 0.90625 -7.40625 Z M 4.015625 -7.5 C 4.015625 -5.800781 4.410156 -4.515625 5.203125 -3.640625 C 5.992188 -2.765625 6.988281 -2.328125 8.1875 -2.328125 C 9.40625 -2.328125 10.394531 -2.757812 11.15625 -3.625 C 11.925781 -4.5 12.3125 -5.800781 12.3125 -7.53125 C 12.3125 -9.25 11.929688 -10.53125 11.171875 -11.375 C 10.421875 -12.21875 9.425781 -12.640625 8.1875 -12.640625 C 6.9375 -12.640625 5.925781 -12.210938 5.15625 -11.359375 C 4.394531 -10.515625 4.015625 -9.226562 4.015625 -7.5 Z M 4.015625 -7.5 "/></g></g></g><g fill="#000000" fill-opacity="1"><g transform="translate(175.61332, 257.091743)"><g><path d="M 1.609375 0 L 1.609375 -14.984375 L 4.625 -14.984375 L 4.625 -2.53125 L 12.171875 -2.53125 L 12.171875 0 Z M 1.609375 0 "/></g></g></g><g fill="#000000" fill-opacity="1"><g transform="translate(193.746133, 257.091743)"><g><path d="M 1.5 -14.984375 L 4.515625 -14.984375 L 4.515625 -6.875 C 4.515625 -5.582031 4.5625 -4.742188 4.65625 -4.359375 C 4.769531 -3.753906 5.070312 -3.265625 5.5625 -2.890625 C 6.050781 -2.515625 6.71875 -2.328125 7.5625 -2.328125 C 8.425781 -2.328125 9.070312 -2.503906 9.5 -2.859375 C 9.9375 -3.210938 10.195312 -3.644531 10.28125 -4.15625 C 10.375 -4.664062 10.421875 -5.515625 10.421875 -6.703125 L 10.421875 -14.984375 L 13.46875 -14.984375 L 13.46875 -7.109375 C 13.46875 -5.316406 13.382812 -4.046875 13.21875 -3.296875 C 13.050781 -2.546875 12.742188 -1.914062 12.296875 -1.40625 C 11.859375 -0.894531 11.273438 -0.488281 10.546875 -0.1875 C 9.816406 0.101562 8.859375 0.25 7.671875 0.25 C 6.234375 0.25 5.144531 0.0859375 4.40625 -0.234375 C 3.664062 -0.566406 3.082031 -1 2.65625 -1.53125 C 2.226562 -2.0625 1.941406 -2.609375 1.796875 -3.171875 C 1.597656 -4.046875 1.5 -5.320312 1.5 -7 Z M 1.5 -14.984375 "/></g></g></g><g fill="#000000" fill-opacity="1"><g transform="translate(214.210423, 257.091743)"><g><path d="M 4.890625 0 L 4.890625 -12.46875 L 0.4375 -12.46875 L 0.4375 -14.984375 L 12.34375 -14.984375 L 12.34375 -12.46875 L 7.90625 -12.46875 L 7.90625 0 Z M 4.890625 0 "/></g></g></g><g fill="#000000" fill-opacity="1"><g transform="translate(232.343229, 257.091743)"><g><path d="M 1.421875 0 L 1.421875 -14.984375 L 4.453125 -14.984375 L 4.453125 0 Z M 1.421875 0 "/></g></g></g><g fill="#000000" fill-opacity="1"><g transform="translate(243.502042, 257.091743)"><g><path d="M 0.90625 -7.40625 C 0.90625 -8.644531 1.054688 -9.722656 1.359375 -10.640625 C 1.671875 -11.566406 2.171875 -12.40625 2.859375 -13.15625 C 3.546875 -13.914062 4.320312 -14.453125 5.1875 -14.765625 C 6.0625 -15.085938 7.054688 -15.25 8.171875 -15.25 C 10.367188 -15.25 12.128906 -14.5625 13.453125 -13.1875 C 14.785156 -11.820312 15.453125 -9.914062 15.453125 -7.46875 C 15.453125 -5.0625 14.789062 -3.171875 13.46875 -1.796875 C 12.144531 -0.429688 10.390625 0.25 8.203125 0.25 C 5.972656 0.25 4.195312 -0.425781 2.875 -1.78125 C 1.5625 -3.144531 0.90625 -5.019531 0.90625 -7.40625 Z M 4.015625 -7.5 C 4.015625 -5.800781 4.410156 -4.515625 5.203125 -3.640625 C 5.992188 -2.765625 6.988281 -2.328125 8.1875 -2.328125 C 9.40625 -2.328125 10.394531 -2.757812 11.15625 -3.625 C 11.925781 -4.5 12.3125 -5.800781 12.3125 -7.53125 C 12.3125 -9.25 11.929688 -10.53125 11.171875 -11.375 C 10.421875 -12.21875 9.425781 -12.640625 8.1875 -12.640625 C 6.9375 -12.640625 5.925781 -12.210938 5.15625 -11.359375 C 4.394531 -10.515625 4.015625 -9.226562 4.015625 -7.5 Z M 4.015625 -7.5 "/></g></g></g><g fill="#000000" fill-opacity="1"><g transform="translate(265.13208, 257.091743)"><g><path d="M 1.546875 0 L 1.546875 -14.984375 L 4.5 -14.984375 L 10.625 -4.984375 L 10.625 -14.984375 L 13.4375 -14.984375 L 13.4375 0 L 10.40625 0 L 4.359375 -9.78125 L 4.359375 0 Z M 1.546875 0 "/></g></g></g><g fill="#000000" fill-opacity="1"><g transform="translate(285.59637, 257.091743)"><g><path d="M 0.75 -4.875 L 3.703125 -5.171875 C 3.867188 -4.179688 4.222656 -3.453125 4.765625 -2.984375 C 5.316406 -2.515625 6.050781 -2.28125 6.96875 -2.28125 C 7.945312 -2.28125 8.679688 -2.484375 9.171875 -2.890625 C 9.671875 -3.304688 9.921875 -3.796875 9.921875 -4.359375 C 9.921875 -4.703125 9.816406 -5 9.609375 -5.25 C 9.398438 -5.507812 9.039062 -5.726562 8.53125 -5.90625 C 8.15625 -6.03125 7.34375 -6.242188 6.09375 -6.546875 C 4.46875 -6.953125 3.328125 -7.445312 2.671875 -8.03125 C 1.753906 -8.851562 1.296875 -9.859375 1.296875 -11.046875 C 1.296875 -11.816406 1.507812 -12.535156 1.9375 -13.203125 C 2.375 -13.867188 3 -14.375 3.8125 -14.71875 C 4.632812 -15.070312 5.617188 -15.25 6.765625 -15.25 C 8.648438 -15.25 10.066406 -14.832031 11.015625 -14 C 11.960938 -13.175781 12.46875 -12.078125 12.53125 -10.703125 L 9.484375 -10.578125 C 9.359375 -11.335938 9.082031 -11.882812 8.65625 -12.21875 C 8.226562 -12.5625 7.585938 -12.734375 6.734375 -12.734375 C 5.984375 -12.734375 5.367188 -12.601562 4.890625 -12.34375 C 4.421875 -12.09375 4.1875 -11.734375 4.1875 -11.265625 C 4.1875 -10.921875 4.34375 -10.617188 4.65625 -10.359375 C 5.03125 -10.046875 5.953125 -9.710938 7.421875 -9.359375 C 8.890625 -9.003906 9.976562 -8.644531 10.6875 -8.28125 C 11.394531 -7.914062 11.945312 -7.40625 12.34375 -6.75 C 12.738281 -6.101562 12.9375 -5.304688 12.9375 -4.359375 C 12.9375 -3.503906 12.695312 -2.703125 12.21875 -1.953125 C 11.75 -1.210938 11.078125 -0.65625 10.203125 -0.28125 C 9.328125 0.09375 8.242188 0.28125 6.953125 0.28125 C 3.210938 0.28125 1.144531 -1.4375 0.75 -4.875 Z M 0.75 -4.875 "/></g></g></g></svg>